<?xml version="1.0" standalone="no"?>
<!DOCTYPE svg PUBLIC "-//W3C//DTD SVG 20010904//EN"
 "http://www.w3.org/TR/2001/REC-SVG-20010904/DTD/svg10.dtd">
<svg version="1.0" xmlns="http://www.w3.org/2000/svg"
 width="512.000000pt" height="512.000000pt" viewBox="0 0 512.000000 512.000000"
 preserveAspectRatio="xMidYMid meet">
<metadata>
Created by potrace 1.14, written by Peter Selinger 2001-2017
</metadata>
<g transform="translate(0.000000,512.000000) scale(0.100000,-0.100000)"
fill="#000000" stroke="none">
<path d="M4920 5113 c-356 -21 -691 -75 -1040 -165 -85 -22 -156 -41 -157 -42
-1 -1 267 -271 597 -601 l598 -598 16 56 c9 31 23 81 30 110 27 94 75 321 100
469 53 308 74 658 41 705 -34 48 -98 71 -185 66z"/>
<path d="M3165 3896 c-197 -46 -348 -163 -435 -338 -90 -182 -89 -365 2 -557
104 -219 351 -364 596 -347 258 17 482 191 563 438 33 102 34 271 2 373 -62
194 -216 350 -407 411 -100 32 -234 40 -321 20z m261 -335 c186 -88 234 -347
90 -492 -70 -71 -125 -94 -226 -94 -72 0 -92 4 -135 27 -112 58 -175 159 -175
278 0 122 64 225 172 279 52 26 72 31 137 31 63 0 86 -5 137 -29z"/>
<path d="M1476 3770 c-386 -44 -736 -216 -1057 -517 -154 -145 -375 -430 -396
-513 -11 -42 -2 -93 24 -129 41 -55 55 -57 538 -87 248 -15 452 -29 455 -31 2
-2 -55 -63 -127 -136 -72 -73 -136 -142 -142 -154 -16 -31 -14 -99 4 -137 8
-17 302 -318 653 -668 697 -697 669 -673 761 -648 35 9 68 36 177 142 120 117
134 128 138 107 3 -13 16 -217 30 -452 28 -458 29 -462 85 -510 47 -39 100
-44 163 -14 134 62 394 281 566 477 194 222 352 531 407 795 33 162 45 388 27
518 l-7 47 -50 -41 c-208 -172 -546 -372 -854 -506 l-146 -62 -732 731 -731
731 20 51 c122 310 320 663 515 913 35 45 59 84 54 87 -17 11 -296 15 -375 6z"/>
</g>
</svg>
